<?xml version="1.0" standalone="no"?>
<!DOCTYPE svg PUBLIC "-//W3C//DTD SVG 20010904//EN"
 "http://www.w3.org/TR/2001/REC-SVG-20010904/DTD/svg10.dtd">
<svg version="1.0" xmlns="http://www.w3.org/2000/svg"
 width="960.000000pt" height="236.000000pt" viewBox="0 0 960.000000 236.000000"
 preserveAspectRatio="xMidYMid meet">

<g transform="translate(0.000000,236.000000) scale(0.100000,-0.100000)"
fill="#000000" stroke="none">
<path d="M4455 2319 c-203 -22 -394 -108 -515 -229 -111 -111 -162 -219 -176
-373 -15 -164 39 -321 146 -426 115 -113 257 -174 630 -271 323 -84 385 -108
462 -178 81 -73 100 -169 50 -262 -54 -105 -176 -159 -377 -167 -142 -6 -233
10 -329 57 -115 57 -193 165 -203 281 l-6 59 -225 0 -225 0 6 -82 c12 -174 82
-323 207 -441 117 -110 217 -163 409 -215 89 -24 112 -26 311 -26 186 0 227 3
307 21 258 61 444 193 533 378 51 107 65 170 65 295 -1 235 -107 402 -325 514
-104 53 -151 68 -450 146 -342 89 -447 128 -497 182 -62 67 -57 191 13 267
115 128 448 141 615 25 65 -45 99 -107 124 -226 l5 -28 220 0 220 0 0 58 c-1
212 -137 427 -335 529 -183 94 -438 137 -660 112z"/>
<path d="M6500 2319 c-463 -54 -779 -376 -864 -881 -22 -130 -22 -386 0 -516
50 -299 186 -544 383 -694 317 -240 829 -259 1167 -43 75 48 194 163 249 240
85 119 149 273 187 448 19 87 22 133 22 307 0 174 -3 220 -22 307 -106 489
-410 782 -865 832 -108 12 -149 12 -257 0z m273 -394 c170 -44 291 -163 364
-356 44 -116 63 -236 63 -389 0 -401 -157 -675 -427 -745 -108 -28 -261 -17
-363 27 -55 24 -143 94 -183 146 -177 233 -216 672 -88 990 66 164 194 285
348 327 66 18 216 18 286 0z"/>
<path d="M30 1180 l0 -1080 810 0 810 0 0 190 0 190 -585 0 -585 0 0 270 0
270 545 0 545 0 0 190 0 190 -545 0 -545 0 0 240 0 240 585 0 585 0 0 190 0
190 -810 0 -810 0 0 -1080z"/>
<path d="M1850 1180 l0 -1080 220 0 220 0 2 323 3 322 305 6 c331 6 389 13
544 70 188 68 323 184 401 342 56 113 75 199 75 342 0 143 -19 229 -75 342
-82 167 -232 289 -434 354 -168 54 -236 59 -773 59 l-488 0 0 -1080z m1057
673 c158 -52 238 -139 263 -285 29 -165 -49 -317 -197 -385 -92 -42 -194 -54
-449 -51 l-229 3 -3 373 -2 374 277 -4 c247 -4 285 -7 340 -25z"/>
<path d="M7820 1180 l0 -1080 221 0 221 0 -3 750 -4 749 125 -248 c81 -160
231 -424 425 -749 l299 -502 233 0 233 0 0 1080 0 1080 -221 0 -221 0 4 -750
4 -751 -126 249 c-82 164 -227 419 -425 750 l-299 502 -233 0 -233 0 0 -1080z"/>
</g>
</svg>
