<svg xmlns="http://www.w3.org/2000/svg" xmlns:xlink="http://www.w3.org/1999/xlink" width="476" zoomAndPan="magnify" viewBox="0 0 357 79.499998" height="106" preserveAspectRatio="xMidYMid meet" version="1.0"><defs><clipPath id="82c563e9a2"><path d="M 1.117188 0 L 355.882812 0 L 355.882812 79.003906 L 1.117188 79.003906 Z M 1.117188 0 " clip-rule="nonzero"/></clipPath></defs><g clip-path="url(#82c563e9a2)"><path fill="#ffffff" d="M 1.117188 0 L 355.882812 0 L 355.882812 79.003906 L 1.117188 79.003906 Z M 1.117188 0 " fill-opacity="1" fill-rule="nonzero"/><path fill="#ffffff" d="M 1.117188 0 L 355.882812 0 L 355.882812 79.003906 L 1.117188 79.003906 Z M 1.117188 0 " fill-opacity="1" fill-rule="nonzero"/></g><path fill="#000000" d="M 14.445312 36.75 L 14.445312 66.003906 L 29.898438 66.003906 L 29.898438 43.042969 L 35.417969 42.269531 C 38.398438 41.828125 42.152344 40.503906 43.695312 39.289062 C 46.347656 37.304688 46.457031 36.640625 46.457031 25.824219 C 46.457031 17.765625 46.015625 14.011719 44.800781 12.246094 C 42.703125 9.152344 35.308594 7.496094 23.9375 7.496094 L 14.445312 7.496094 Z M 33.761719 25.160156 C 33.761719 31.121094 33.429688 32.335938 31.886719 32.667969 C 30.121094 33 29.898438 32.113281 29.898438 25.160156 C 29.898438 18.207031 30.121094 17.324219 31.886719 17.652344 C 33.429688 17.984375 33.761719 19.199219 33.761719 25.160156 Z M 33.761719 25.160156 " fill-opacity="1" fill-rule="nonzero"/><path fill="#000000" d="M 165.667969 36.75 L 165.667969 66.003906 L 180.015625 66.003906 L 180.015625 7.496094 L 165.667969 7.496094 Z M 165.667969 36.75 " fill-opacity="1" fill-rule="nonzero"/><path fill="#000000" d="M 224.167969 36.75 L 224.167969 66.003906 L 247.347656 66.003906 L 247.347656 54.964844 L 238.519531 54.964844 L 238.519531 7.496094 L 224.167969 7.496094 Z M 224.167969 36.75 " fill-opacity="1" fill-rule="nonzero"/><path fill="#000000" d="M 310.265625 36.75 L 310.265625 66.003906 L 324.503906 66.003906 L 324.835938 55.738281 L 325.167969 45.582031 L 327.265625 55.738281 L 329.25 66.003906 L 343.160156 66.003906 L 339.40625 51.652344 L 335.542969 37.304688 L 337.863281 29.90625 C 339.074219 25.710938 340.398438 21.515625 340.730469 20.414062 C 341.285156 18.757812 340.511719 18.535156 335.433594 18.535156 L 329.472656 18.535156 L 327.265625 24.828125 L 325.167969 31.230469 L 324.835938 19.308594 L 324.503906 7.496094 L 310.265625 7.496094 Z M 310.265625 36.75 " fill-opacity="1" fill-rule="nonzero"/><path fill="#000000" d="M 346.691406 7.9375 C 346.691406 8.160156 347.90625 8.601562 349.453125 8.824219 C 350.886719 9.152344 351.878906 8.933594 351.546875 8.492188 C 350.996094 7.496094 346.691406 7.054688 346.691406 7.9375 Z M 346.691406 7.9375 " fill-opacity="1" fill-rule="nonzero"/><path fill="#000000" d="M 346.691406 11.25 C 346.691406 11.472656 347.683594 11.914062 348.898438 12.246094 C 350.113281 12.574219 350.886719 12.355469 350.445312 11.804688 C 349.894531 10.808594 346.691406 10.367188 346.691406 11.25 Z M 346.691406 11.25 " fill-opacity="1" fill-rule="nonzero"/><path fill="#000000" d="M 58.597656 19.421875 C 52.417969 22.511719 50.871094 26.925781 50.871094 42.050781 C 50.871094 61.480469 54.183594 66.335938 67.429688 66.445312 C 78.136719 66.445312 83.984375 60.925781 83.984375 50.660156 L 83.984375 46.132812 L 70.738281 46.132812 L 70.738281 50.441406 C 70.738281 56.179688 69.855469 58.277344 67.320312 58.277344 C 65.441406 58.277344 65.222656 57.394531 65.222656 50.550781 L 65.222656 42.824219 L 84.316406 42.824219 L 83.765625 34.765625 C 83.101562 25.160156 81.117188 21.628906 75.046875 19.199219 C 69.414062 16.882812 63.453125 16.992188 58.597656 19.421875 Z M 69.414062 30.460938 C 69.746094 34.542969 69.527344 35.09375 67.539062 35.09375 C 65.550781 35.09375 65.222656 34.433594 65.222656 30.902344 C 65.222656 23.394531 68.863281 23.0625 69.414062 30.460938 Z M 69.414062 30.460938 " fill-opacity="1" fill-rule="nonzero"/><path fill="#000000" d="M 96.457031 19.089844 C 90.277344 21.738281 89.0625 25.050781 88.621094 39.953125 C 88.179688 55.1875 89.394531 60.597656 94.140625 64.128906 C 98.226562 67.109375 109.484375 67.328125 114.671875 64.460938 C 120.191406 61.589844 121.515625 57.285156 121.515625 41.386719 C 121.515625 28.914062 121.292969 27.367188 118.976562 23.945312 C 115.003906 17.984375 104.296875 15.667969 96.457031 19.089844 Z M 107.164062 42.382812 C 107.164062 57.0625 107.054688 58.386719 105.289062 58.058594 C 103.523438 57.726562 103.300781 55.960938 102.972656 42.382812 C 102.75 31.121094 103.082031 26.816406 104.074219 26.152344 C 104.847656 25.710938 105.839844 25.601562 106.28125 25.824219 C 106.722656 26.152344 107.164062 33.550781 107.164062 42.382812 Z M 107.164062 42.382812 " fill-opacity="1" fill-rule="nonzero"/><path fill="#000000" d="M 144.253906 19.75 C 141.9375 21.628906 141.382812 21.738281 141.382812 20.304688 C 141.382812 18.867188 139.949219 18.535156 134.210938 18.535156 L 127.035156 18.535156 L 127.035156 72.628906 L 141.382812 72.628906 L 141.382812 63.023438 L 145.6875 65.121094 C 150.546875 67.550781 154.519531 67 157.609375 63.578125 C 159.265625 61.699219 159.597656 58.941406 159.929688 44.699219 C 160.371094 24.054688 159.929688 21.296875 155.734375 19.089844 C 151.316406 16.769531 147.785156 16.992188 144.253906 19.75 Z M 145.578125 42.050781 C 145.800781 57.726562 145.800781 58.277344 143.589844 58.277344 C 141.496094 58.277344 141.382812 57.613281 141.382812 42.492188 C 141.382812 33.769531 141.714844 26.265625 142.15625 25.824219 C 144.585938 23.503906 145.246094 26.925781 145.578125 42.050781 Z M 145.578125 42.050781 " fill-opacity="1" fill-rule="nonzero"/><path fill="#000000" d="M 192.710938 19.53125 C 190.171875 20.632812 187.632812 22.730469 186.859375 24.496094 C 185.09375 28.582031 185.09375 55.628906 186.972656 59.269531 C 189.179688 63.6875 195.140625 66.558594 202.203125 66.558594 C 212.136719 66.558594 216.773438 62.25 218.207031 51.875 L 218.980469 46.132812 L 204.300781 46.132812 L 204.300781 52.207031 C 204.300781 57.394531 203.96875 58.277344 202.203125 58.277344 C 199.773438 58.277344 198.78125 55.40625 198.78125 48.011719 L 198.78125 42.824219 L 218.980469 42.824219 L 218.207031 34.765625 C 217.4375 25.824219 215.449219 22.289062 209.710938 19.421875 C 204.851562 16.882812 198.339844 16.992188 192.710938 19.53125 Z M 204.300781 31.34375 C 204.300781 34.652344 203.96875 35.09375 201.542969 35.09375 C 198.449219 35.09375 198.007812 32.886719 199.886719 27.921875 C 200.878906 25.382812 201.320312 25.160156 202.644531 26.265625 C 203.527344 27.035156 204.300781 29.355469 204.300781 31.34375 Z M 204.300781 31.34375 " fill-opacity="1" fill-rule="nonzero"/><path fill="#000000" d="M 288.851562 19.75 C 286.535156 21.628906 285.984375 21.738281 285.984375 20.304688 C 285.984375 18.867188 284.546875 18.535156 278.808594 18.535156 L 271.632812 18.535156 L 271.632812 66.003906 L 285.984375 66.003906 L 285.984375 46.246094 C 285.984375 30.347656 286.3125 26.375 287.527344 25.933594 C 288.410156 25.601562 289.40625 25.601562 289.734375 25.933594 C 290.066406 26.375 290.398438 35.535156 290.398438 46.355469 L 290.398438 66.003906 L 304.746094 66.003906 L 304.746094 44.480469 C 304.746094 22.953125 304.746094 22.84375 301.988281 20.191406 C 298.675781 16.769531 292.9375 16.550781 288.851562 19.75 Z M 288.851562 19.75 " fill-opacity="1" fill-rule="nonzero"/><path fill="#000000" d="M 251.765625 42.269531 L 251.765625 66.003906 L 266.113281 66.003906 L 266.113281 18.535156 L 251.765625 18.535156 Z M 251.765625 42.269531 " fill-opacity="1" fill-rule="nonzero"/></svg>