<?xml version="1.0" standalone="no"?>
<!DOCTYPE svg PUBLIC "-//W3C//DTD SVG 20010904//EN"
 "http://www.w3.org/TR/2001/REC-SVG-20010904/DTD/svg10.dtd">
<svg version="1.0" xmlns="http://www.w3.org/2000/svg"
 width="1308.000000pt" height="350.000000pt" viewBox="0 0 1308.000000 350.000000"
 preserveAspectRatio="xMidYMid meet">

<g transform="translate(0.000000,350.000000) scale(0.100000,-0.100000)"
fill="#000000" stroke="none">
<path d="M11785 3479 c-33 -4 -73 -12 -89 -18 -53 -21 -108 -74 -132 -125
l-24 -51 0 -1260 c0 -844 4 -1272 11 -1298 18 -67 66 -95 117 -70 52 25 54 40
54 445 0 205 4 389 9 408 5 20 23 49 40 65 27 27 37 30 90 30 52 -1 63 -4 88
-30 16 -17 143 -215 284 -440 141 -226 266 -420 279 -432 36 -34 94 -54 158
-54 70 -1 186 48 237 100 55 55 79 174 49 245 -8 18 -113 206 -233 417 -121
211 -231 404 -245 429 -14 25 -45 79 -69 120 -38 65 -43 83 -43 135 -1 42 5
70 19 93 21 34 32 42 290 200 166 102 175 111 161 166 -7 27 -46 47 -77 39
-13 -4 -117 -64 -233 -135 -173 -106 -217 -128 -248 -128 -48 0 -90 21 -117
58 -19 28 -20 45 -23 463 -3 424 -4 435 -25 475 -26 49 -92 111 -141 131 -51
21 -118 29 -187 22z"/>
<path d="M12710 3481 c-140 -29 -241 -148 -243 -285 -2 -124 62 -230 169 -282
148 -73 339 -2 404 149 31 71 32 174 3 239 -58 129 -203 207 -333 179z m181
-57 c122 -62 176 -209 124 -338 -28 -69 -60 -105 -123 -139 -180 -96 -395 33
-395 238 0 203 211 332 394 239z"/>
<path d="M12650 3186 c0 -158 1 -166 20 -166 17 0 19 8 22 73 l3 72 39 3 c45
4 71 -16 122 -95 26 -41 40 -53 59 -53 l25 0 -30 49 c-17 26 -42 60 -56 75
-25 24 -25 26 -8 32 62 22 85 96 45 145 -18 22 -28 24 -130 27 l-111 4 0 -166z
m205 114 c10 -8 15 -25 13 -44 -4 -41 -37 -57 -113 -54 l-60 3 -3 44 c-5 71
-1 74 78 69 38 -3 77 -11 85 -18z"/>
<path d="M10355 2647 c-178 -17 -319 -77 -434 -183 -81 -75 -121 -135 -150
-222 -21 -61 -21 -75 -19 -720 l3 -657 24 -47 c43 -84 117 -137 219 -159 67
-14 178 8 234 47 50 35 106 119 116 176 5 26 9 341 10 701 0 628 1 656 19 699
44 99 126 154 246 164 106 10 253 -42 318 -113 76 -81 112 -174 113 -293 1
-124 -36 -175 -214 -292 -181 -120 -225 -176 -224 -288 1 -82 32 -146 103
-213 72 -68 129 -92 216 -91 110 1 194 52 244 150 21 41 22 50 19 490 -3 439
-4 450 -25 504 -71 175 -278 315 -493 334 -36 4 -83 9 -105 12 -71 9 -138 10
-220 1z"/>
<path d="M2335 2625 c-145 -32 -262 -93 -356 -186 -68 -68 -103 -120 -132
-195 -22 -59 -22 -60 -22 -719 l0 -660 23 -46 c63 -128 202 -197 340 -168 103
21 165 67 213 159 l24 45 5 695 c5 687 5 695 26 735 44 82 108 128 202 145 70
12 126 7 219 -22 71 -21 157 -92 198 -162 53 -92 71 -246 36 -322 -29 -63 -74
-107 -179 -175 -135 -87 -184 -129 -216 -189 -26 -47 -28 -59 -24 -125 4 -61
10 -82 38 -124 96 -150 262 -207 402 -138 66 32 109 81 132 150 23 69 24 812
1 902 -25 95 -55 145 -130 220 -92 92 -197 148 -321 171 -119 21 -399 27 -479
9z"/>
<path d="M4052 2629 c-208 -35 -366 -138 -439 -287 l-38 -76 0 -625 c0 -723
-7 -668 106 -786 89 -93 206 -147 419 -191 124 -26 417 -26 520 0 221 55 377
187 422 356 15 57 17 130 17 621 1 527 0 560 -19 621 -53 174 -233 311 -463
355 -95 18 -443 26 -525 12z m156 -185 c104 -21 141 -42 177 -99 l30 -48 3
-621 c2 -442 0 -632 -8 -660 -6 -21 -32 -60 -56 -86 -100 -107 -241 -123 -459
-54 -69 22 -118 66 -137 121 -9 28 -13 184 -16 617 -3 653 -4 647 68 729 97
110 211 139 398 101z"/>
<path d="M5940 2634 c-107 -22 -234 -59 -280 -81 -107 -52 -206 -169 -243
-288 -49 -155 -52 -194 -52 -830 l0 -600 27 -47 c58 -97 172 -155 288 -144 94
8 150 31 202 81 83 81 83 77 85 440 2 207 -1 335 -8 362 -15 56 -66 114 -136
153 -142 80 -248 184 -283 278 -19 48 -21 72 -18 147 6 109 23 150 91 216 59
58 123 90 197 98 66 8 173 -5 212 -25 64 -33 146 -146 179 -249 10 -30 14
-195 18 -675 l6 -635 27 -47 c31 -51 86 -100 145 -125 89 -39 297 -6 356 55
62 65 61 46 63 737 2 553 4 638 19 694 49 190 151 273 340 274 115 2 174 -22
244 -99 65 -70 84 -129 84 -255 1 -85 -3 -103 -27 -152 -32 -65 -70 -102 -230
-215 -88 -63 -122 -94 -143 -130 l-28 -47 -3 -327 c-2 -207 1 -341 8 -366 12
-48 79 -126 129 -152 21 -10 66 -24 101 -30 111 -20 204 6 277 79 77 78 74 44
71 786 -3 594 -5 666 -21 720 -48 161 -128 260 -262 325 -124 59 -204 74 -385
74 l-155 0 -128 -47 c-143 -52 -175 -56 -262 -26 -158 53 -240 70 -360 74 -66
2 -131 1 -145 -1z"/>
<path d="M8570 2634 c-124 -25 -276 -90 -404 -174 -290 -189 -295 -397 -13
-546 61 -32 81 -38 132 -38 110 0 146 33 260 235 139 248 229 316 405 306 115
-6 158 -28 210 -108 57 -88 83 -174 83 -278 1 -69 -3 -94 -20 -126 -41 -79
-132 -146 -214 -159 -18 -3 -112 -8 -207 -11 -95 -4 -181 -8 -190 -9 -9 -2
-53 -7 -97 -11 -248 -23 -411 -118 -485 -285 -63 -142 -62 -274 2 -409 44 -93
166 -212 273 -268 123 -64 208 -78 460 -78 187 1 219 3 288 23 187 53 303 156
343 304 18 68 21 1079 3 1173 -34 184 -203 334 -482 427 -77 25 -111 31 -207
33 -63 2 -126 1 -140 -1z m171 -1069 c16 -9 36 -26 44 -39 26 -40 75 -189 75
-231 0 -108 -82 -274 -172 -348 -112 -92 -213 -105 -340 -44 -120 58 -195 156
-205 268 -15 157 87 298 263 365 140 53 267 64 335 29z"/>
<path d="M490 2614 c-36 -7 -91 -23 -123 -35 -180 -67 -327 -236 -346 -397
-11 -99 -5 -1964 6 -1992 39 -92 132 -158 233 -167 79 -8 213 14 252 41 67 45
72 66 78 323 l5 233 26 26 c26 25 29 26 195 29 148 3 180 7 251 30 155 48 314
182 377 315 l31 65 0 570 0 570 -31 65 c-37 75 -77 122 -154 177 -133 97 -210
126 -385 148 -151 18 -328 18 -415 -1z m133 -179 c104 -22 181 -86 230 -193
22 -46 22 -58 25 -542 2 -316 -1 -512 -8 -543 -25 -119 -108 -233 -207 -282
-53 -27 -67 -30 -158 -30 -78 0 -109 5 -139 20 -82 40 -123 105 -162 257 -12
46 -14 147 -12 575 3 577 -1 536 75 630 46 58 83 82 156 103 78 22 115 23 200
5z"/>
</g>
</svg>
