<?xml version="1.0" standalone="no"?>
<!DOCTYPE svg PUBLIC "-//W3C//DTD SVG 20010904//EN"
 "http://www.w3.org/TR/2001/REC-SVG-20010904/DTD/svg10.dtd">
<svg version="1.0" xmlns="http://www.w3.org/2000/svg"
 width="428.000000pt" height="118.000000pt" viewBox="0 0 428.000000 118.000000"
 preserveAspectRatio="xMidYMid meet">

<g transform="translate(0.000000,118.000000) scale(0.100000,-0.100000)"
fill="#000000" stroke="none">
<path d="M3367 870 c-55 -10 -123 -43 -120 -59 2 -5 -3 -8 -11 -5 -27 10 -124
-140 -112 -173 3 -8 2 -12 -2 -9 -15 9 -54 -133 -48 -169 8 -43 53 -90 97
-103 50 -13 187 -6 234 13 52 22 107 64 99 76 -3 5 0 8 7 7 17 -4 81 117 108
202 32 101 29 135 -18 181 -35 36 -43 39 -92 39 -30 0 -63 2 -74 4 -11 2 -42
0 -68 -4z m103 -50 c25 0 42 -33 34 -64 -15 -60 -114 -303 -132 -323 -29 -32
-100 -49 -132 -31 -20 11 -25 21 -24 53 1 51 98 303 127 332 24 24 100 53 105
41 2 -4 12 -8 22 -8z"/>
<path d="M142 628 c-50 -134 -94 -251 -97 -260 -6 -16 1 -18 73 -18 l80 0 11
33 c6 17 28 74 47 125 l36 92 94 0 c69 0 94 -3 93 -12 0 -7 -19 -62 -43 -123
l-43 -110 70 -3 c75 -3 100 9 110 51 2 12 43 122 90 245 l85 223 -81 -3 -82
-3 -35 -97 -35 -98 -97 0 c-54 0 -98 2 -98 4 0 2 16 46 35 96 19 50 35 94 35
96 0 2 -35 4 -79 4 l-78 0 -91 -242z"/>
<path d="M830 813 c-12 -32 -28 -74 -36 -93 -32 -84 -123 -327 -129 -347 -6
-22 -5 -23 72 -23 l78 0 39 103 c21 56 65 171 97 255 33 84 59 155 59 157 0 3
-35 5 -79 5 l-79 0 -22 -57z"/>
<path d="M1110 833 c-7 -21 -32 -87 -55 -148 -63 -162 -125 -325 -125 -330 0
-3 35 -5 78 -5 l79 0 38 100 c21 57 47 107 58 115 20 14 23 9 81 -98 l61 -112
83 -3 c45 -2 82 1 82 5 0 4 -8 22 -18 38 -56 92 -145 276 -136 284 5 4 62 47
127 95 64 48 117 89 117 92 0 2 -24 4 -54 4 -53 0 -57 -2 -181 -95 -70 -53
-129 -95 -130 -93 -2 2 10 37 26 78 47 122 52 110 -40 110 l-79 0 -12 -37z"/>
<path d="M1650 853 c0 -24 18 -252 32 -391 l10 -113 56 3 55 3 59 85 c102 147
163 243 160 252 -1 5 2 7 7 3 6 -3 15 5 22 17 6 13 34 53 60 91 l49 67 -42 0
c-37 0 -46 -4 -66 -34 -14 -20 -20 -40 -16 -52 4 -14 3 -15 -4 -5 -10 14 -19
3 -142 -178 -30 -45 -58 -81 -62 -81 -5 0 -8 12 -9 28 0 15 -6 92 -12 172
l-12 145 -72 3 c-65 3 -73 1 -73 -15z"/>
<path d="M2227 863 c-6 -10 -46 -112 -97 -247 -23 -60 -39 -115 -36 -123 3 -8
1 -11 -4 -8 -6 3 -10 4 -10 2 0 -3 -11 -34 -25 -71 l-25 -66 74 0 74 0 90 243
c50 133 94 250 97 260 6 15 0 17 -63 17 -39 0 -73 -3 -75 -7z"/>
<path d="M2506 847 c-64 -37 -92 -114 -66 -182 6 -15 37 -55 69 -89 83 -87 97
-119 65 -150 -12 -13 -40 -16 -143 -16 l-127 0 -11 -30 -11 -30 159 0 c121 0
169 4 196 15 53 22 74 44 67 69 -4 15 -3 17 4 8 13 -19 22 7 22 62 0 49 -11
67 -103 164 -59 64 -68 77 -62 100 4 15 12 30 18 34 7 4 67 8 133 8 118 0 122
1 128 23 3 12 6 25 6 30 0 4 -69 7 -152 7 -140 0 -156 -2 -192 -23z"/>
<path d="M2961 853 c-5 -10 -29 -74 -55 -143 -25 -69 -65 -178 -90 -242 l-44
-118 74 0 c41 0 74 1 74 3 0 2 29 81 65 177 36 96 63 180 60 188 -2 7 -1 11 4
8 5 -3 19 22 31 57 13 34 25 68 27 75 4 9 -13 12 -66 12 -57 0 -72 -3 -80 -17z"/>
<path d="M3779 843 c-6 -16 -34 -91 -64 -168 -29 -77 -69 -182 -88 -232 l-35
-93 37 0 37 0 32 87 c18 49 47 127 65 176 17 48 35 87 38 87 7 0 57 -121 100
-243 15 -45 36 -87 46 -95 10 -7 36 -12 58 -10 36 3 40 6 56 48 21 59 132 350
158 418 l21 52 -35 0 c-33 0 -37 -4 -56 -47 -11 -25 -17 -53 -15 -60 3 -8 2
-12 -2 -9 -7 4 -16 -17 -76 -176 -11 -32 -23 -58 -26 -58 -3 0 -36 79 -75 175
l-70 175 -48 0 c-43 0 -49 -3 -58 -27z"/>
</g>
</svg>
