<?xml version="1.0" standalone="no"?>
<!DOCTYPE svg PUBLIC "-//W3C//DTD SVG 20010904//EN"
 "http://www.w3.org/TR/2001/REC-SVG-20010904/DTD/svg10.dtd">
<svg version="1.0" xmlns="http://www.w3.org/2000/svg"
 width="491.000000pt" height="103.000000pt" viewBox="0 0 491.000000 103.000000"
 preserveAspectRatio="xMidYMid meet">

<g transform="translate(0.000000,103.000000) scale(0.100000,-0.100000)"
fill="#000000" stroke="none">
<path d="M775 744 c-77 -28 -64 -34 81 -33 167 1 197 8 136 32 -52 21 -161 21
-217 1z"/>
<path d="M2775 685 c-98 -35 -148 -152 -111 -258 29 -79 91 -116 195 -117 130
0 201 67 201 189 0 102 -44 165 -135 190 -53 14 -101 13 -150 -4z m149 -19
c53 -22 80 -69 84 -147 6 -96 -21 -152 -84 -181 -80 -35 -155 -12 -199 62 -27
47 -27 153 1 201 42 71 121 97 198 65z"/>
<path d="M3170 530 c0 -96 -3 -185 -6 -197 -5 -19 -2 -23 16 -23 22 0 22 0 15
129 -5 79 -4 135 2 146 9 15 30 -5 144 -129 74 -80 135 -142 136 -138 1 4 4
89 6 190 4 152 3 182 -9 182 -11 0 -14 -27 -14 -147 l0 -147 -92 100 c-51 54
-116 124 -145 154 l-53 55 0 -175z"/>
<path d="M3881 685 c-72 -22 -112 -71 -126 -151 -13 -83 27 -169 95 -204 66
-34 220 -22 220 17 0 8 -3 13 -7 11 -62 -32 -90 -39 -129 -33 -86 12 -124 69
-124 183 0 55 5 76 23 103 46 69 135 89 201 44 20 -13 36 -20 36 -16 0 5 3 16
6 24 4 10 -7 17 -40 26 -57 14 -100 13 -155 -4z"/>
<path d="M4254 690 c-33 -13 -64 -59 -64 -94 0 -44 23 -72 83 -102 70 -35 87
-52 87 -86 0 -41 -15 -64 -50 -76 -38 -14 -86 1 -102 31 -11 21 -11 21 -20 -3
-13 -35 13 -50 85 -50 54 0 62 3 93 34 28 28 34 41 34 78 0 51 -21 77 -85 103
-83 35 -109 89 -62 133 32 30 71 28 102 -5 14 -15 25 -23 25 -16 0 6 3 18 6
26 10 28 -83 47 -132 27z"/>
<path d="M1273 675 c0 -13 16 -14 111 -8 l110 6 -18 -29 c-11 -16 -66 -95
-123 -176 -56 -81 -103 -150 -103 -153 0 -3 70 -5 155 -5 136 0 155 2 155 16
0 14 -14 16 -102 14 -57 -2 -111 -2 -121 -1 -14 1 0 26 62 119 43 64 98 143
120 175 l42 57 -144 0 c-121 0 -144 -2 -144 -15z"/>
<path d="M1670 500 l0 -190 100 0 c86 0 100 2 100 16 0 15 -9 16 -75 10 l-75
-7 0 86 0 85 65 0 c47 0 65 4 65 13 0 10 -16 12 -65 9 l-65 -4 0 77 0 78 70
-7 c60 -6 70 -5 70 8 0 13 -16 16 -95 16 l-95 0 0 -190z"/>
<path d="M1980 501 l0 -191 63 0 c124 0 177 34 177 116 0 34 -5 47 -26 63 -15
12 -36 21 -48 21 -18 0 -16 3 11 20 38 23 53 48 53 88 0 51 -30 67 -136 70
l-94 4 0 -191z m165 149 c24 -27 23 -76 -2 -102 -13 -12 -39 -22 -67 -25 l-46
-6 0 77 0 76 48 0 c36 0 54 -5 67 -20z m-10 -160 c34 -13 49 -53 35 -96 -15
-44 -45 -64 -97 -64 l-43 0 0 85 0 85 39 0 c22 0 51 -4 66 -10z"/>
<path d="M2330 500 l0 -190 25 0 c25 0 25 0 25 95 0 56 4 95 10 95 5 0 42 -43
82 -95 62 -80 77 -95 101 -95 33 0 35 -2 -51 104 l-64 79 42 22 c73 37 90 97
41 146 -28 28 -33 29 -120 29 l-91 0 0 -190z m171 149 c14 -14 19 -30 17 -56
-4 -44 -37 -72 -96 -80 l-42 -6 0 82 0 81 50 0 c37 0 55 -5 71 -21z"/>
<path d="M3607 503 c2 -180 3 -188 22 -191 20 -3 20 3 23 187 l3 191 -25 0
-25 0 2 -187z"/>
<path d="M995 649 c-55 -11 -160 -22 -234 -26 l-133 -6 -14 -33 c-8 -18 -14
-56 -14 -84 0 -59 4 -61 101 -29 77 25 409 180 409 191 0 4 -3 7 -7 7 -5 -1
-53 -10 -108 -20z"/>
<path d="M1090 576 c-75 -28 -298 -146 -303 -160 -8 -20 23 -41 83 -56 25 -6
78 -22 118 -37 l73 -26 31 29 c61 58 94 172 69 237 -12 30 -20 32 -71 13z"/>
<path d="M670 325 c54 -57 193 -99 267 -80 24 6 8 14 -116 56 -168 57 -184 59
-151 24z"/>
</g>
</svg>
